<?xml version="1.0" standalone="no"?>
<!DOCTYPE svg PUBLIC "-//W3C//DTD SVG 20010904//EN" "http://www.w3.org/TR/2001/REC-SVG-20010904/DTD/svg10.dtd">
<!-- Created using Krita: https://krita.org -->
<svg xmlns="http://www.w3.org/2000/svg" 
    xmlns:xlink="http://www.w3.org/1999/xlink"
    xmlns:krita="http://krita.org/namespaces/svg/krita"
    xmlns:sodipodi="http://sodipodi.sourceforge.net/DTD/sodipodi-0.dtd"
    width="610.56pt"
    height="145.44pt"
    viewBox="0 0 610.56 145.44">
<defs/>
<path id="shape0" transform="matrix(0.1 0 0 -0.1 2.10866697046553 68.0019357277882)" fill="#000000" stroke-opacity="0" stroke="#000000" stroke-width="0" stroke-linecap="square" stroke-linejoin="bevel" d="M340.913 519.019C153.913 482.019 35.9133 330.019 3.91333 82.0194C-7.08667 -1.98064 -12.0867 0.0193573 237.913 0.0193573C356.913 0.0193573 458.913 4.01936 463.913 8.01936C469.913 12.0194 489.913 51.0194 508.913 95.0194C556.913 207.019 600.913 280.019 657.913 342.019L706.913 395.019L738.913 365.019C789.913 318.019 844.913 226.019 872.913 142.019C886.913 100.019 898.913 57.0194 898.913 48.0194C898.913 39.0194 905.913 24.0194 914.913 16.0194C927.913 2.01936 963.913 0.0193573 1148.91 0.0193573C1414.91 0.0193573 1406.91 -3.98064 1377.91 103.019C1326.91 287.019 1223.91 431.019 1100.91 492.019C1038.91 523.019 1026.91 525.019 933.913 525.019C844.913 525.019 826.913 521.019 771.913 496.019L708.913 467.019L661.913 488.019C566.913 528.019 444.913 540.019 340.913 519.019ZM598.913 449.019C654.913 430.019 654.913 424.019 607.913 373.019C549.913 310.019 504.913 238.019 462.913 143.019L429.913 65.0194L256.913 62.0194C161.913 61.0194 78.9133 62.0194 72.9133 64.0194C63.9133 68.0194 63.9133 86.0194 74.9133 140.019C106.913 310.019 192.913 416.019 329.913 455.019C391.913 472.019 540.913 469.019 598.913 449.019ZM1074.91 439.019C1150.91 403.019 1212.91 334.019 1264.91 227.019C1288.91 176.019 1311.91 118.019 1315.91 97.0194L1321.91 60.0194L1140.91 60.0194L960.913 60.0194L938.913 132.019C909.913 228.019 868.913 307.019 813.913 374.019C771.913 426.019 769.913 430.019 788.913 440.019C855.913 476.019 995.913 475.019 1074.91 439.019Z" sodipodi:nodetypes="cccccccccccccccccccccccccccccccccccccc"/><path id="shape1" transform="matrix(0.1 0 0 -0.1 175 119.1)" fill="#000000" stroke-opacity="0" stroke="#000000" stroke-width="0" stroke-linecap="square" stroke-linejoin="bevel" d="M0 918C0 917 76 710 169 460L338 6L397 3L455 0L547 248C598 384 675 592 719 709L798 921L735 921L673 921L541 564C468 367 405 203 401 199C397 195 333 354 259 554L123 916L62 919C28 921 0 920 0 918Z" sodipodi:nodetypes="cccccccccccccccc"/><path id="shape2" transform="matrix(0.1 0 0 -0.1 253.188646074768 121.5)" fill="#000000" stroke-opacity="0" stroke="#000000" stroke-width="0" stroke-linecap="square" stroke-linejoin="bevel" d="M243.114 743C177.114 735 120.114 716 70.1135 685L38.1135 665L64.1135 623C79.1135 599 91.1135 579 92.1135 578C93.1135 577 118.114 588 147.114 602C224.114 640 356.114 647 416.114 616C464.114 592 484.114 565 503.114 502L516.114 457L375.114 462C192.114 469 138.114 456 68.1135 386C-41.8865 276 -15.8865 111 126.114 27C168.114 3 182.114 0 268.114 0C376.114 0 433.114 21 494.114 82L528.114 116L528.114 70L528.114 25L584.114 25L640.114 25L636.114 257C632.114 462 629.114 498 610.114 555C562.114 699 431.114 766 243.114 743ZM448.114 346L523.114 340L520.114 305C505.114 158 330.114 61 191.114 124C103.114 164 91.1135 284 171.114 327C221.114 354 295.114 359 448.114 346Z" sodipodi:nodetypes="cccccccccccccccccccccccccccc"/><path id="shape3" transform="matrix(0.1 0 0 -0.1 456.474681411536 121.5)" fill="#000000" stroke-opacity="0" stroke="#000000" stroke-width="0" stroke-linecap="square" stroke-linejoin="bevel" d="M308.253 745C237.253 735 173.253 702 115.253 645C-72.7468 462 -23.7468 144 211.253 25C254.253 3 272.253 0 370.253 0C470.253 0 485.253 2 537.253 28C591.253 55 685.253 134 685.253 153C685.253 158 663.253 172 636.253 185L586.253 208L549.253 175C495.253 128 450.253 112 370.253 111C311.253 110 293.253 114 255.253 137C197.253 171 150.253 220 130.253 267L115.253 305L412.253 307L709.253 310L718.253 349C730.253 397 714.253 500 686.253 558C643.253 647 535.253 728 443.253 740C419.253 744 391.253 748 380.253 749C369.253 751 337.253 749 308.253 745ZM470.253 611C540.253 579 581.253 528 601.253 450L607.253 425L362.253 425L116.253 425L124.253 453C167.253 603 330.253 677 470.253 611Z" sodipodi:nodetypes="ccccccccccccccccccccccccccc"/><path id="shape4" transform="matrix(0.1 0 0 -0.1 334 119)" fill="#000000" stroke-opacity="0" stroke="#000000" stroke-width="0" stroke-linecap="square" stroke-linejoin="bevel" d="M196 700C174 689 148 673 138 664C121 648 120 648 120 668C120 688 115 690 60 690L0 690L0 345L0 0L60 0L120 0L120 235C120 491 125 517 177 572C214 610 257 617 313 592L358 572L389 629L419 687L384 703C336 726 246 724 196 700Z" sodipodi:nodetypes="ccccccccccccccccc"/><path id="shape5" transform="matrix(0.1 0 0 -0.1 542 119)" fill="#000000" stroke-opacity="0" stroke="#000000" stroke-width="0" stroke-linecap="square" stroke-linejoin="bevel" d="M217 705C196 697 166 681 150 670L120 649L120 669C120 688 114 690 60 690L0 690L0 345L0 0L60 0L120 0L120 230C120 489 124 507 185 557C285 640 447 620 497 520C512 490 515 450 518 243L521 0L580 0L640 0L640 194C640 496 619 596 541 661C521 677 483 697 456 705C394 724 268 723 217 705Z" sodipodi:nodetypes="ccccccccccccccccccccc"/><path id="shape6" transform="matrix(0.1 0 0 -0.1 383.526606882685 119)" fill="#000000" stroke-opacity="0" stroke="#000000" stroke-width="0" stroke-linecap="square" stroke-linejoin="bevel" d="M2.73393 678C26.7339 647 242.734 362 248.734 352C253.734 343 143.734 192 1.73393 13C-5.26607 3 7.73393 0 62.7339 0L133.734 0L230.734 125C283.734 194 328.734 250 330.734 250C332.734 250 376.734 194 429.734 125L525.734 0L596.734 0L666.734 0L637.734 38C622.734 58 562.734 137 505.734 213L402.734 350L430.734 387C446.734 408 505.734 485 561.734 558L664.734 690L591.734 690L519.734 689L424.734 565C352.734 471 327.734 444 318.734 453C312.734 459 268.734 516 220.734 578L133.734 690L62.7339 690C7.73393 690 -5.26607 687 2.73393 678Z" sodipodi:nodetypes="ccccccccccccccccccccccccc"/><path id="shape7" transform="matrix(0.1 0 0 -0.1 2.32120691715496 130.680468607634)" fill="#5a50ff" stroke="#595b9c" stroke-width="0" stroke-linecap="square" stroke-linejoin="bevel" d="M1.78793 506.805C-8.21207 489.805 25.7879 320.805 52.7879 251.805C84.7879 170.805 160.788 85.8047 229.788 50.8047C302.788 12.8047 407.788 -6.19531 491.788 1.80469C558.788 7.80469 669.788 38.8047 692.788 57.8047C698.788 62.8047 721.788 56.8047 749.788 42.8047C821.788 5.80469 921.788 -9.19531 998.788 5.80469C1130.79 31.8047 1228.79 109.805 1299.79 243.805C1340.79 321.805 1386.79 452.805 1386.79 490.805L1386.79 516.805L1150.79 514.805L914.788 511.805L880.788 407.805C844.788 296.805 776.788 181.805 729.788 151.805L702.788 133.805L644.788 195.805C593.788 251.805 526.788 368.805 478.788 489.805L466.788 516.805L237.788 516.805C96.7879 516.805 5.78793 512.805 1.78793 506.805ZM469.788 372.805C521.788 263.805 563.788 198.805 618.788 140.805L657.788 99.8047L614.788 81.8047C551.788 55.8047 395.788 49.8047 325.788 69.8047C182.788 111.805 87.7879 236.805 62.7879 419.805L55.7879 466.805L240.788 466.805L425.788 466.805ZM1320.79 439.805C1295.79 336.805 1217.79 195.805 1152.79 139.805C1080.79 75.8047 1041.79 61.8047 936.788 61.8047C863.788 61.8047 830.788 66.8047 798.788 80.8047L756.788 99.8047L799.788 145.805C865.788 216.805 907.788 301.805 952.788 454.805C954.788 463.805 1001.79 466.805 1141.79 466.805L1326.79 466.805Z" sodipodi:nodetypes="cccccccccccccccccccccccccccccccccccccccc"/>
</svg>
